<?xml version="1.0" encoding="UTF-8" standalone="no"?>
<svg width="251.178mm" height="169.686mm"
 viewBox="0 0 693 462"
 xmlns="http://www.w3.org/2000/svg" xmlns:xlink="http://www.w3.org/1999/xlink" version="1.2" baseProfile="tiny">
<title>GraphicsScene SVG Export</title>
<desc>An SVG drawing created by exporting a QGraphicsScene.</desc>
<defs>
</defs>
<g fill="none" stroke="black" stroke-width="1" fill-rule="evenodd" stroke-linecap="square" stroke-linejoin="bevel" >

<g fill="none" stroke="#000000" stroke-opacity="1" stroke-width="1" stroke-linecap="square" stroke-linejoin="bevel" transform="matrix(1,0,0,1,0,0)"
font-family="Microsoft YaHei UI" font-size="9" font-weight="400" font-style="normal" 
>
</g>

<g fill="none" stroke="#000000" stroke-opacity="1" stroke-width="1" stroke-linecap="square" stroke-linejoin="bevel" transform="matrix(1,0,0,1,0,0)"
font-family="Microsoft YaHei UI" font-size="9" font-weight="400" font-style="normal" 
>
</g>

<g fill="none" stroke="#c0c0c0" stroke-opacity="1" stroke-width="1" stroke-linecap="square" stroke-linejoin="bevel" transform="matrix(1.02742,0,0,1.02742,0,0)"
font-family="Microsoft YaHei UI" font-size="9" font-weight="400" font-style="normal" 
>
<polyline fill="none" vector-effect="none" points="0,-1 0,463 " />
<polyline fill="none" vector-effect="none" points="20,-1 20,463 " />
<polyline fill="none" vector-effect="none" points="40,-1 40,463 " />
<polyline fill="none" vector-effect="none" points="60,-1 60,463 " />
<polyline fill="none" vector-effect="none" points="80,-1 80,463 " />
<polyline fill="none" vector-effect="none" points="100,-1 100,463 " />
<polyline fill="none" vector-effect="none" points="120,-1 120,463 " />
<polyline fill="none" vector-effect="none" points="140,-1 140,463 " />
<polyline fill="none" vector-effect="none" points="160,-1 160,463 " />
<polyline fill="none" vector-effect="none" points="180,-1 180,463 " />
<polyline fill="none" vector-effect="none" points="200,-1 200,463 " />
<polyline fill="none" vector-effect="none" points="220,-1 220,463 " />
<polyline fill="none" vector-effect="none" points="240,-1 240,463 " />
<polyline fill="none" vector-effect="none" points="260,-1 260,463 " />
<polyline fill="none" vector-effect="none" points="280,-1 280,463 " />
<polyline fill="none" vector-effect="none" points="300,-1 300,463 " />
<polyline fill="none" vector-effect="none" points="320,-1 320,463 " />
<polyline fill="none" vector-effect="none" points="340,-1 340,463 " />
<polyline fill="none" vector-effect="none" points="360,-1 360,463 " />
<polyline fill="none" vector-effect="none" points="380,-1 380,463 " />
<polyline fill="none" vector-effect="none" points="400,-1 400,463 " />
<polyline fill="none" vector-effect="none" points="420,-1 420,463 " />
<polyline fill="none" vector-effect="none" points="440,-1 440,463 " />
<polyline fill="none" vector-effect="none" points="460,-1 460,463 " />
<polyline fill="none" vector-effect="none" points="480,-1 480,463 " />
<polyline fill="none" vector-effect="none" points="500,-1 500,463 " />
<polyline fill="none" vector-effect="none" points="520,-1 520,463 " />
<polyline fill="none" vector-effect="none" points="540,-1 540,463 " />
<polyline fill="none" vector-effect="none" points="560,-1 560,463 " />
<polyline fill="none" vector-effect="none" points="580,-1 580,463 " />
<polyline fill="none" vector-effect="none" points="600,-1 600,463 " />
<polyline fill="none" vector-effect="none" points="620,-1 620,463 " />
<polyline fill="none" vector-effect="none" points="640,-1 640,463 " />
<polyline fill="none" vector-effect="none" points="660,-1 660,463 " />
<polyline fill="none" vector-effect="none" points="680,-1 680,463 " />
<polyline fill="none" vector-effect="none" points="-1,0 694,0 " />
<polyline fill="none" vector-effect="none" points="-1,20 694,20 " />
<polyline fill="none" vector-effect="none" points="-1,40 694,40 " />
<polyline fill="none" vector-effect="none" points="-1,60 694,60 " />
<polyline fill="none" vector-effect="none" points="-1,80 694,80 " />
<polyline fill="none" vector-effect="none" points="-1,100 694,100 " />
<polyline fill="none" vector-effect="none" points="-1,120 694,120 " />
<polyline fill="none" vector-effect="none" points="-1,140 694,140 " />
<polyline fill="none" vector-effect="none" points="-1,160 694,160 " />
<polyline fill="none" vector-effect="none" points="-1,180 694,180 " />
<polyline fill="none" vector-effect="none" points="-1,200 694,200 " />
<polyline fill="none" vector-effect="none" points="-1,220 694,220 " />
<polyline fill="none" vector-effect="none" points="-1,240 694,240 " />
<polyline fill="none" vector-effect="none" points="-1,260 694,260 " />
<polyline fill="none" vector-effect="none" points="-1,280 694,280 " />
<polyline fill="none" vector-effect="none" points="-1,300 694,300 " />
<polyline fill="none" vector-effect="none" points="-1,320 694,320 " />
<polyline fill="none" vector-effect="none" points="-1,340 694,340 " />
<polyline fill="none" vector-effect="none" points="-1,360 694,360 " />
<polyline fill="none" vector-effect="none" points="-1,380 694,380 " />
<polyline fill="none" vector-effect="none" points="-1,400 694,400 " />
<polyline fill="none" vector-effect="none" points="-1,420 694,420 " />
<polyline fill="none" vector-effect="none" points="-1,440 694,440 " />
<polyline fill="none" vector-effect="none" points="-1,460 694,460 " />
</g>

<g fill="none" stroke="#c0c0c0" stroke-opacity="1" stroke-width="1" stroke-linecap="square" stroke-linejoin="bevel" transform="matrix(1.02742,0,0,1.02742,0,0)"
font-family="Microsoft YaHei UI" font-size="9" font-weight="400" font-style="normal" 
>
</g>

<g fill="#ffffff" fill-opacity="1" stroke="#000000" stroke-opacity="1" stroke-width="2" stroke-linecap="square" stroke-linejoin="bevel" transform="matrix(1.02742,0,0,1.02742,0,0)"
font-family="Microsoft YaHei UI" font-size="9" font-weight="400" font-style="normal" 
>
<path vector-effect="none" fill-rule="evenodd" d="M202.5,202.5 C174.886,202.5 152.5,180.114 152.5,152.5 C152.5,124.886 174.886,102.5 202.5,102.5 L402.5,102.5 M402.5,102.5 C430.114,102.5 452.5,124.886 452.5,152.5 C452.5,180.114 430.114,202.5 402.5,202.5 L202.5,202.5"/>
</g>

<g fill="none" stroke="#c0c0c0" stroke-opacity="1" stroke-width="1" stroke-linecap="square" stroke-linejoin="bevel" transform="matrix(1.02742,0,0,1.02742,0,0)"
font-family="Microsoft YaHei UI" font-size="9" font-weight="400" font-style="normal" 
>
</g>

<g fill="none" stroke="#c0c0c0" stroke-opacity="1" stroke-width="1" stroke-linecap="square" stroke-linejoin="bevel" transform="matrix(1.02742,0,0,1.02742,117.126,298.978)"
font-family="Microsoft YaHei UI" font-size="9" font-weight="400" font-style="normal" 
>
</g>

<g fill="none" stroke="#c0c0c0" stroke-opacity="1" stroke-width="1" stroke-linecap="square" stroke-linejoin="bevel" transform="matrix(1.02742,0,0,1.02742,117.126,298.978)"
font-family="Microsoft YaHei UI" font-size="9" font-weight="400" font-style="normal" 
>
</g>

<g fill="none" stroke="#c0c0c0" stroke-opacity="1" stroke-width="1" stroke-linecap="square" stroke-linejoin="bevel" transform="matrix(1.02742,0,0,1.02742,117.126,298.978)"
font-family="Microsoft YaHei UI" font-size="9" font-weight="400" font-style="normal" 
>
</g>

<g fill="none" stroke="#000000" stroke-opacity="0.894118" stroke-width="1" stroke-linecap="square" stroke-linejoin="bevel" transform="matrix(1.02742,0,0,1.02742,117.126,298.978)"
font-family="Microsoft YaHei UI" font-size="9" font-weight="400" font-style="normal" 
>
<text fill="#000000" fill-opacity="0.894118" stroke="none" xml:space="preserve" x="4" y="16" font-family="Microsoft YaHei UI" font-size="9" font-weight="400" font-style="normal" 
 >Text here.</text>
</g>

<g fill="none" stroke="#c0c0c0" stroke-opacity="1" stroke-width="1" stroke-linecap="square" stroke-linejoin="bevel" transform="matrix(1.02742,0,0,1.02742,117.126,298.978)"
font-family="Microsoft YaHei UI" font-size="9" font-weight="400" font-style="normal" 
>
</g>

<g fill="none" stroke="#c0c0c0" stroke-opacity="1" stroke-width="1" stroke-linecap="square" stroke-linejoin="bevel" transform="matrix(1,0,0,1,0,0)"
font-family="Microsoft YaHei UI" font-size="9" font-weight="400" font-style="normal" 
>
</g>

<g fill="none" stroke="#c0c0c0" stroke-opacity="1" stroke-width="1" stroke-linecap="square" stroke-linejoin="bevel" transform="matrix(1,0,0,1,0,0)"
font-family="Microsoft YaHei UI" font-size="9" font-weight="400" font-style="normal" 
>
</g>

<g fill="none" stroke="#c0c0c0" stroke-opacity="1" stroke-width="1" stroke-linecap="square" stroke-linejoin="bevel" transform="matrix(1.02742,0,0,1.02742,117.126,298.978)"
font-family="Microsoft YaHei UI" font-size="9" font-weight="400" font-style="normal" 
>
</g>

<g fill="none" stroke="#c0c0c0" stroke-opacity="1" stroke-width="1" stroke-linecap="square" stroke-linejoin="bevel" transform="matrix(1.02742,0,0,1.02742,117.126,298.978)"
font-family="Microsoft YaHei UI" font-size="9" font-weight="400" font-style="normal" 
>
</g>

<g fill="none" stroke="#c0c0c0" stroke-opacity="1" stroke-width="1" stroke-linecap="square" stroke-linejoin="bevel" transform="matrix(1.02742,0,0,1.02742,117.126,298.978)"
font-family="Microsoft YaHei UI" font-size="9" font-weight="400" font-style="normal" 
>
</g>

<g fill="none" stroke="#000000" stroke-opacity="1" stroke-width="1" stroke-linecap="square" stroke-linejoin="bevel" transform="matrix(1,0,0,1,0,0)"
font-family="Microsoft YaHei UI" font-size="9" font-weight="400" font-style="normal" 
>
</g>
</g>
</svg>
